<svg viewBox="0 0 500 400" xmlns="http://www.w3.org/2000/svg">
  <!-- Background -->
  <rect x="50" y="50" width="400" height="300" rx="20" ry="20" fill="#f9f0ff" stroke="#8a4fff" stroke-width="4"/>
  
  <!-- Store Sign -->
  <rect x="100" y="80" width="300" height="80" rx="10" ry="10" fill="#8a4fff" stroke="#6b30d9" stroke-width="3"/>
  
  <!-- Magic Pets Text -->
  <text x="250" y="125" font-family="Arial, sans-serif" font-size="32" font-weight="bold" text-anchor="middle" fill="#ffffff">MAGIC PETS</text>
  <text x="250" y="155" font-family="Arial, sans-serif" font-size="22" font-style="italic" text-anchor="middle" fill="#ffffff">Uptown</text>
  
  <!-- Magic Wand -->
  <line x1="125" y1="85" x2="145" y2="65" stroke="#ffd700" stroke-width="3" stroke-linecap="round"/>
  <circle cx="148" cy="62" r="5" fill="#ffd700"/>
  <circle cx="150" cy="60" r="2" fill="white"/>
  
  <!-- Sparkles -->
  <path d="M160 60 L163 63 L160 66 L157 63 Z" fill="#ffd700"/>
  <path d="M175 70 L178 73 L175 76 L172 73 Z" fill="#ffd700"/>
  <path d="M140 50 L143 53 L140 56 L137 53 Z" fill="#ffd700"/>
  
  <!-- Cat -->
  <circle cx="175" y="230" r="30" fill="#9c59b6"/>
  <circle cx="160" y="215" r="5" fill="white"/>
  <circle cx="190" y="215" r="5" fill="white"/>
  <circle cx="160" y="215" r="2" fill="black"/>
  <circle cx="190" y="215" r="2" fill="black"/>
  <path d="M170 225 Q175 230 180 225" stroke="black" stroke-width="2" fill="none"/>
  <path d="M145 215 L160 195 L175 215" fill="#9c59b6"/>
  <path d="M175 215 L190 195 L205 215" fill="#9c59b6"/>
  
  <!-- Dog -->
  <circle cx="325" y="230" r="30" fill="#e67e22"/>
  <circle cx="310" y="215" r="5" fill="white"/>
  <circle cx="340" y="215" r="5" fill="white"/>
  <circle cx="310" y="215" r="2" fill="black"/>
  <circle cx="340" y="215" r="2" fill="black"/>
  <path d="M320 225 Q325 232 330 225" stroke="black" stroke-width="2" fill="none"/>
  <ellipse cx="325" cy="245" rx="15" ry="10" fill="#d35400"/>
  <ellipse cx="350" cy="210" rx="12" ry="20" fill="#e67e22"/>
  <ellipse cx="300" cy="210" rx="12" ry="20" fill="#e67e22"/>
  
  <!-- Birds -->
  <path d="M400 120 C410 110, 420 130, 430 120" stroke="#3498db" stroke-width="3" fill="none"/>
  <path d="M380 140 C390 130, 400 150, 410 140" stroke="#2ecc71" stroke-width="3" fill="none"/>
  
  <!-- Magic Potion -->
  <path d="M425 280 L435 280 L440 240 L420 240 Z" fill="#9b59b6" stroke="#8e44ad" stroke-width="2"/>
  <rect x="425" y="230" width="10" height="10" fill="#8e44ad" stroke="#8e44ad" stroke-width="2"/>
  <circle cx="430" cy="255" r="3" fill="#f39c12"/>
  <circle cx="425" cy="265" r="2" fill="#f39c12"/>
  <circle cx="435" cy="250" r="2" fill="#f39c12"/>
  
  <!-- Magical Aura -->
  <circle cx="250" cy="200" r="120" fill="none" stroke="#f1c40f" stroke-width="3" stroke-dasharray="5,10" opacity="0.6"/>
  
  <!-- Store Details -->
  <text x="250" y="310" font-family="Arial, sans-serif" font-size="14" text-anchor="middle" fill="#8a4fff">Enchanted Supplies • Magical Companions</text>
  <text x="250" y="330" font-family="Arial, sans-serif" font-size="14" text-anchor="middle" fill="#8a4fff">123 Wizard Lane • Open 9-7 Daily</text>
</svg>